<svg xmlns="http://www.w3.org/2000/svg" width="47.059" height="50" viewBox="0 0 47.059 50">
  <g fill="#00FFC6" fill-rule="evenodd" transform="translate(.03)">
    <path d="M46.4114504 20.4685083C45.6629594 23.8375446 42.3642525 25.9528125 39.0438261 25.1933638 35.7237338 24.4335762 33.6386517 21.0869165 34.3874769 17.7178802 35.1359679 14.3488439 38.4343406 12.233576 41.7544328 12.9933637 45.0751934 13.7528124 47.1599414 17.099472 46.4114504 20.4685083M17.3265598 15.3719976C16.7401305 15.1814573 16.176089 14.887849 15.65816 14.4881214 13.051139 12.4762605 9.74240777 11.3984537 6.46842787 11.494741 3.39493665 11.5859426.831020774 9.13095703.741469171 6.01314907.651917567 2.894324 3.07081331.292534286 6.14430453.202010719 9.04771454.116233706 11.9320781.532574307 14.717534 1.43984422 17.5029898 2.34711412 20.087957 3.71174842 22.3995913 5.49645276 24.8468896 7.3849032 25.3213794 10.9292229 23.4595081 13.4123488 21.9922652 15.3696243 19.5102155 16.0829636 17.3265598 15.3719976M21.0563507 45.9718112C13.56576 43.006571 11.0282418 34.748245 12.8152641 26.7048701 13.6663385 22.87474 13.3315224 24.3821099 13.3315224 24.3821099 14.0800134 21.0130737 11.9952655 17.666414 8.67483904 16.9066263 5.35474676 16.1471777 2.05637408 18.2624456 1.30754891 21.6314819L.89086664 23.5070488C-1.65032718 34.9428537 5.45231791 46.3447547 16.7231223 48.9228117 24.6561246 50.7376905 32.754196 47.7290533 37.6825415 41.4853005 33.8044224 46.3667923 27.119462 48.3722114 21.0563507 45.9718112"/>
    <path fill-opacity=".6" d="M40.6539171,34.9435657 C40.6184975,32.7086168 39.4015313,30.5658867 37.3040857,29.4751964 C34.277041,27.9013747 30.5613178,29.1134412 29.0081989,32.187174 C27.2148278,35.7369183 23.2775646,37.6019751 19.4338627,36.7228454 C14.9442532,35.6958945 12.0505335,31.2561713 12.8150636,26.704904 C12.4922769,26.6309934 12.8708663,26.7177875 12.8150636,26.704904 C11.0661342,34.577403 13.5658937,43.006605 21.0564843,45.9718451 C27.1192615,48.3719063 33.8045561,46.3664872 37.682341,41.4849953 C37.7334656,41.4205778 37.7829195,41.3544651 37.8333758,41.2890305 C38.6403427,40.2417372 39.3621019,39.109345 39.9769338,37.8918539 C40.4544309,36.9469506 40.6699562,35.9362736 40.6539171,34.9435657"/>
  </g>
</svg>
