<svg xmlns="http://www.w3.org/2000/svg" xmlns:xlink="http://www.w3.org/1999/xlink" width="100" height="44.048" viewBox="0 0 100 44.048">
  <defs>
    <polygon id="ic_parati-a" points=".296 .365 4.485 .365 4.485 25.535 .296 25.535"/>
    <polygon id="ic_parati-c" points="0 .412 17.907 .412 17.907 29.328 0 29.328"/>
  </defs>
  <g fill="none" fill-rule="evenodd" transform="translate(-.5 -.095)">
    <path fill="#FFF" d="M90.2446058,12.3503022 L88.6206578,12.3503022 L88.6206578,31.5090421 C88.6206578,32.5559191 87.7789697,33.4043016 86.7408737,33.4043016 C85.7031991,33.4043016 84.861511,32.5559191 84.861511,31.5090421 L84.861511,12.3503022 L83.2008946,12.3503022 C82.1623771,12.3503022 81.320689,11.5014945 81.320689,10.4546176 C81.320689,9.40774074 82.1623771,8.55893311 83.2008946,8.55893311 L84.861511,8.55893311 L84.861511,3.23996535 C84.861511,2.19351348 85.7031991,1.34428081 86.7408737,1.34428081 C87.7789697,1.34428081 88.6206578,2.19351348 88.6206578,3.23996535 L88.6206578,8.55893311 L90.2446058,8.55893311 C91.2831233,8.55893311 92.1248114,9.40774074 92.1248114,10.4546176 C92.1248114,11.5014945 91.2831233,12.3503022 90.2446058,12.3503022"/>
    <g transform="translate(95.04 7.832)">
      <mask id="ic_parati-b" fill="#fff">
        <use xlink:href="#ic_parati-a"/>
      </mask>
      <path fill="#FFF" d="M4.27043957,7.99600586 L4.27043957,23.6396537 C4.27043957,24.6865306 3.42875149,25.5353382 2.39065547,25.5353382 C1.35255945,25.5353382 0.51087137,24.6865306 0.51087137,23.6396537 L0.51087137,7.99600586 C0.51087137,6.94912895 1.35255945,6.10032132 2.39065547,6.10032132 C3.42875149,6.10032132 4.27043957,6.94912895 4.27043957,7.99600586 M0.295918479,2.47769369 C0.295918479,1.31095511 1.23370315,0.365238053 2.39065547,0.365238053 C3.54718632,0.365238053 4.48497099,1.31095511 4.48497099,2.47769369 C4.48497099,3.64400722 3.54718632,4.58972428 2.39065547,4.58972428 C1.23370315,4.58972428 0.295918479,3.64400722 0.295918479,2.47769369" mask="url(#ic_parati-b)"/>
    </g>
    <g transform="translate(1.473 14.208)">
      <mask id="ic_parati-d" fill="#fff">
        <use xlink:href="#ic_parati-c"/>
      </mask>
      <path fill="#FFF" d="M8.95401018,2.75482066 C8.0305557,2.75482066 7.15346361,2.93631333 6.34633658,3.29462321 C5.55016793,3.64868267 4.8441952,4.1328048 4.2478063,4.73338826 C3.64931002,5.33737206 3.1738848,6.05271669 2.83501789,6.85902018 C2.49488655,7.66829896 2.32250276,8.53708353 2.32250276,9.44199661 C2.32250276,10.3872886 2.50247312,11.2598986 2.85735613,12.0721526 C3.2076029,12.8754808 3.68850731,13.5870001 4.28573916,14.1884336 C4.88212807,14.7907173 5.59105113,15.270589 6.39185601,15.6123223 C7.19434681,15.9557557 8.05626575,16.1300226 8.95401018,16.1300226 C9.85428346,16.1300226 10.7187313,15.9481049 11.5245939,15.5897951 C12.3199196,15.2370107 13.0263138,14.7528886 13.6227027,14.15103 C14.2182486,13.5495965 14.6983101,12.8380772 15.0493998,12.035174 C15.4051258,11.2220699 15.5855176,10.3494599 15.5855176,9.44199661 C15.5855176,8.5358084 15.4051258,7.66319846 15.0493998,6.84966927 C14.6983101,6.04719115 14.2182486,5.33524685 13.6231241,4.73423835 C13.0263138,4.1328048 12.3199196,3.64868267 11.5245939,3.29462321 C10.7166239,2.93631333 9.85217608,2.75482066 8.95401018,2.75482066 M1.16133568,29.3279824 C0.520691767,29.3279824 0.000168590502,28.8026312 0.000168590502,28.1569934 L0.000168590502,9.47897521 C0.000168590502,8.19705043 0.232402008,7.01713557 0.690546698,5.93540527 C1.14953434,4.84899952 1.79228563,3.88585576 2.60025561,3.07147649 C3.40864707,2.25667217 4.37129884,1.60210845 5.46207939,1.12606211 C6.54611632,0.652566023 7.72077065,0.412417646 8.95401018,0.412417646 C10.1859853,0.412417646 11.353896,0.652140981 12.4252886,1.12521203 C13.5055323,1.60168341 14.4627048,2.25667217 15.2710963,3.07147649 C16.0794878,3.88670584 16.7285612,4.85239985 17.2006146,5.94178089 C17.6697177,7.02138598 17.9074303,8.19917563 17.9074303,9.44199661 C17.9074303,10.6856677 17.6697177,11.8630323 17.2006146,12.9426374 C16.7277182,14.0324435 16.0786448,14.9981375 15.2710963,15.8129418 C14.4631263,16.6273211 13.5063752,17.2823098 12.4244457,17.7596313 C11.3543175,18.2322773 10.1859853,18.4720006 8.95401018,18.4720006 C7.92392221,18.4720006 6.93851072,18.3007089 6.02559315,17.9640762 C5.09834538,17.6214928 4.2406412,17.1488468 3.47819066,16.5597395 L2.32250276,15.6675776 L2.32250276,28.1569934 C2.32250276,28.8026312 1.80113663,29.3279824 1.16133568,29.3279824" mask="url(#ic_parati-d)"/>
    </g>
    <path fill="#FFF" d="M31.1618113 17.0363408C30.2362495 17.0363408 29.3583144 17.2195337 28.5524518 17.5799687 27.7567046 17.9357284 27.0507319 18.4228258 26.454343 19.0280847 25.8575326 19.6333436 25.3774712 20.3491133 25.0280674 21.1558418 24.6727629 21.9723463 24.4936355 22.8611078 24.4936355 23.797474 24.4936355 24.7104629 24.6727629 25.5873232 25.0280674 26.4034026 25.3783141 27.2105562 25.8583756 27.9267509 26.454343 28.5303097 27.049889 29.1355686 27.7558617 29.622666 28.5524518 29.9784257 29.3587359 30.3388607 30.2366709 30.5220536 31.1618113 30.5220536 32.0848443 30.5220536 32.9627794 30.3388607 33.7699064 29.9780006 34.5664965 29.622666 35.2724692 29.1355686 35.8684367 28.5303097 36.4635611 27.9263259 36.9436226 27.2105562 37.2942908 26.4034026 37.6495953 25.585198 37.8287227 24.7087627 37.8287227 23.797474 37.8287227 22.862808 37.6495953 21.9740465 37.2942908 21.1558418 36.9436226 20.3491133 36.4639826 19.6333436 35.8688581 19.0285098 35.2720478 18.4228258 34.5656536 17.9357284 33.7699064 17.5799687 32.9636223 17.2195337 32.0856873 17.0363408 31.1618113 17.0363408M31.1618113 32.8636065C29.9277288 32.8636065 28.7530745 32.6238832 27.6690376 32.1503871 26.5778356 31.6739157 25.6156053 31.019352 24.8080568 30.2049727 24.0000868 29.3905934 23.3510133 28.420224 22.8789599 27.3197919 22.4090139 26.2261604 22.1713013 25.0415701 22.1713013 23.797474 22.1713013 22.5525278 22.4090139 21.3602867 22.878117 20.2543291 23.348906 19.143696 23.996715 18.1673759 24.8021561 17.3525716 25.6084402 16.5377673 26.569406 15.8836286 27.6580792 15.4075823 28.7404302 14.9340862 29.9129772 14.6943629 31.1432664 14.6943629 32.3727126 14.6943629 33.5448381 14.9340862 34.6276106 15.4075823 35.7175482 15.8844787 36.6856791 16.5398925 37.505029 17.356397 38.3201641 18.1690761 38.9730308 19.144121 39.4442412 20.2547541 39.9141873 21.362837 40.1518999 22.555078 40.1518999 23.797474L40.1518999 31.5468283C40.1518999 32.1308352 39.6802679 32.6060314 39.101581 32.6060314L38.8798845 32.6060314C38.3003547 32.6060314 37.8287227 32.1308352 37.8287227 31.5468283L37.8287227 30.0889364 36.6768281 30.9687721C35.9105843 31.554054 35.0533016 32.0220246 34.1285827 32.3603575 33.2135577 32.69444 32.215502 32.8636065 31.1618113 32.8636065M45.0367675 32.6062014C44.6603892 32.6062014 44.3548189 32.2976214 44.3548189 31.9184845L44.3548189 15.3822498C44.3548189 15.0026879 44.6603892 14.6941078 45.0367675 14.6941078L45.9947831 14.6941078C46.3707399 14.6941078 46.6771531 15.0026879 46.6771531 15.3822498L46.6771531 16.7428073 47.7961726 15.9832583C48.3934044 15.579044 49.0559651 15.2589878 49.7653096 15.0328658 50.4717038 14.8080189 51.2215101 14.6941078 51.9940761 14.6941078 52.7670635 14.6941078 53.5168698 14.8080189 54.2236855 15.0328658 54.933873 15.2594129 55.5964336 15.579044 56.1928225 15.9832583 56.5447552 16.215756 56.8701349 16.4724809 57.1681186 16.7521582 57.2827601 16.8592686 57.3008836 17.0314103 57.2962474 17.1572226 57.2848675 17.4505011 57.1301857 17.7726825 56.9202906 17.9414239L56.6733055 18.1458688C56.4174694 18.3583895 56.1687984 18.4030189 56.0061086 18.4030189 55.7974778 18.4030189 55.6680846 18.3337371 55.6331021 18.3124851 55.1732715 18.0315327 55.1235373 18.0056052 54.9401951 17.9091208 54.853371 17.8627913 54.7332503 17.7994601 54.5102893 17.6766232 53.7377234 17.2520068 52.8905561 17.0365108 51.9940761 17.0365108 51.2661866 17.0365108 50.5682219 17.1805999 49.9199914 17.4641025 49.279769 17.7450548 48.7141479 18.1305673 48.2378797 18.6104391 47.76119 19.0911609 47.3789111 19.6615664 47.1011582 20.3063541 46.8200336 20.9600678 46.6771531 21.6635113 46.6771531 22.3988328L46.6771531 31.9184845C46.6771531 32.2976214 46.3707399 32.6062014 45.9947831 32.6062014L45.0367675 32.6062014zM67.8680942 17.0363408C66.9425323 17.0363408 66.0645973 17.2195337 65.2591561 17.5799687 64.4629875 17.9357284 63.7570148 18.4228258 63.1606259 19.0280847 62.564237 19.6333436 62.0841755 20.3491133 61.7347717 21.1558418 61.3794672 21.9723463 61.1999183 22.8611078 61.1999183 23.797474 61.1999183 24.7104629 61.3794672 25.5873232 61.7347717 26.4034026 62.084597 27.2105562 62.5650799 27.9267509 63.1606259 28.5303097 63.7565933 29.1355686 64.462566 29.622666 65.2591561 29.9784257 66.0654402 30.3388607 66.9433753 30.5220536 67.8680942 30.5220536 68.7915486 30.5220536 69.6694837 30.3388607 70.4761892 29.9780006 71.2732008 29.622666 71.9791736 29.1355686 72.5747195 28.5303097 73.169844 27.9263259 73.6499055 27.2105562 74.0009952 26.4034026 74.3562997 25.585198 74.5354271 24.7087627 74.5354271 23.797474 74.5354271 22.862808 74.3562997 21.9740465 74.0009952 21.1558418 73.6499055 20.3491133 73.170687 19.6333436 72.5755625 19.0285098 71.9783306 18.4228258 71.2723579 17.9357284 70.4761892 17.5799687 69.6699052 17.2195337 68.7919701 17.0363408 67.8680942 17.0363408M67.8680942 32.8636065C66.6344332 32.8636065 65.4597788 32.6238832 64.3753204 32.1503871 63.2841184 31.6739157 62.3223096 31.019352 61.5143396 30.2049727 60.7067911 29.3905934 60.0577177 28.420224 59.5852428 27.3197919 59.1157182 26.2261604 58.8780056 25.0415701 58.8780056 23.797474 58.8780056 22.5525278 59.1157182 21.3602867 59.5843998 20.2543291 60.0556103 19.143696 60.7029978 18.1673759 61.5088604 17.3525716 62.3151445 16.5377673 63.2756889 15.8836286 64.3643621 15.4075823 65.4471346 14.9340862 66.6196815 14.6943629 67.8499707 14.6943629 69.0794169 14.6943629 70.2511209 14.9340862 71.3343149 15.4075823 72.4242525 15.8844787 73.3923835 16.5398925 74.2113118 17.356397 75.0268684 18.1690761 75.6793136 19.144121 76.1509456 20.2547541 76.6208916 21.362837 76.8586042 22.555078 76.8586042 23.797474L76.8586042 31.5468283C76.8586042 32.1308352 76.3869723 32.6060314 75.8078639 32.6060314L75.5861674 32.6060314C75.007059 32.6060314 74.5354271 32.1308352 74.5354271 31.5468283L74.5354271 30.0889364 73.383111 30.9687721C72.6172886 31.554054 71.7600059 32.0220246 70.835287 32.3603575 69.9198406 32.69444 68.9222063 32.8636065 67.8680942 32.8636065"/>
  </g>
</svg>
